<?xml version="1.0" encoding="iso-8859-1"?>
<!-- Generator: Adobe Illustrator 16.0.4, SVG Export Plug-In . SVG Version: 6.00 Build 0)  -->
<!DOCTYPE svg PUBLIC "-//W3C//DTD SVG 1.1//EN" "http://www.w3.org/Graphics/SVG/1.1/DTD/svg11.dtd">
<svg version="1.1" id="Layer_1" xmlns="http://www.w3.org/2000/svg" xmlns:xlink="http://www.w3.org/1999/xlink" x="0px" y="0px"
	 width="100px" height="100px" viewBox="0 0 100 100" style="enable-background:new 0 0 100 100;" xml:space="preserve">
<g>
	<g>
		<path style="fill:#3093C7;" d="M50,99c27.062,0,49-21.938,49-49S77.062,1,50,1S1,22.938,1,50S22.938,99,50,99"/>
	</g>
	<g>
		<path style="fill:#FFFFFF;" d="M80.89,61.826v11.668c0,0.972-0.341,1.798-1.019,2.479c-0.683,0.68-1.508,1.02-2.48,1.02H23.723
			c-0.974,0-1.799-0.34-2.479-1.02c-0.682-0.681-1.022-1.507-1.022-2.479V61.826c0-0.971,0.34-1.798,1.022-2.478
			c0.68-0.681,1.505-1.022,2.479-1.022h16.953l4.922,4.96c1.408,1.358,3.062,2.041,4.958,2.041c1.896,0,3.55-0.683,4.959-2.041
			l4.96-4.96h16.916c0.973,0,1.798,0.342,2.48,1.022C80.549,60.028,80.89,60.855,80.89,61.826z M69.041,41.078
			c0.413,0.997,0.242,1.847-0.511,2.552L52.197,59.968c-0.437,0.462-0.984,0.692-1.642,0.692c-0.656,0-1.203-0.23-1.639-0.692
			L32.583,43.63c-0.753-0.706-0.924-1.555-0.51-2.552c0.412-0.949,1.129-1.423,2.15-1.423h9.334V23.32
			c0-0.629,0.229-1.178,0.692-1.638c0.46-0.463,1.008-0.694,1.64-0.694h9.333c0.633,0,1.18,0.231,1.641,0.694
			c0.461,0.46,0.693,1.009,0.693,1.638v16.334h9.332C67.911,39.654,68.627,40.128,69.041,41.078z M66.198,71.633
			c0.46-0.46,0.69-1.008,0.69-1.639c0-0.634-0.23-1.18-0.69-1.642c-0.462-0.46-1.009-0.692-1.64-0.692
			c-0.635,0-1.182,0.232-1.643,0.692c-0.461,0.462-0.693,1.008-0.693,1.642c0,0.631,0.232,1.179,0.693,1.639
			c0.461,0.465,1.008,0.692,1.643,0.692C65.189,72.325,65.736,72.098,66.198,71.633z M75.53,71.633
			c0.462-0.46,0.692-1.008,0.692-1.639c0-0.634-0.23-1.18-0.692-1.642c-0.462-0.46-1.008-0.692-1.641-0.692
			c-0.632,0-1.179,0.232-1.642,0.692c-0.461,0.462-0.69,1.008-0.69,1.642c0,0.631,0.229,1.179,0.69,1.639
			c0.463,0.465,1.01,0.692,1.642,0.692C74.522,72.325,75.068,72.098,75.53,71.633z"/>
	</g>
</g>
</svg>
