<?xml version="1.0" standalone="no"?>
<!DOCTYPE svg PUBLIC "-//W3C//DTD SVG 20010904//EN"
 "http://www.w3.org/TR/2001/REC-SVG-20010904/DTD/svg10.dtd">
<svg version="1.0" xmlns="http://www.w3.org/2000/svg"
 width="256.000000pt" height="256.000000pt" viewBox="0 0 256.000000 256.000000"
 preserveAspectRatio="xMidYMid meet">
<metadata>
Created by potrace 1.11, written by Peter Selinger 2001-2013
</metadata>
<g transform="translate(0.000000,256.000000) scale(0.100000,-0.100000)"
fill="#000000" stroke="none">
<path d="M1075 2545 c-289 -54 -505 -165 -702 -363 -186 -187 -312 -429 -357
-687 -14 -79 -15 -370 -2 -425 3 -14 8 -35 10 -48 73 -362 327 -700 656 -874
63 -33 189 -87 220 -93 8 -2 42 -11 75 -19 106 -28 186 -35 345 -31 205 5 332
35 524 125 200 93 413 288 532 485 47 80 102 197 113 247 1 4 8 23 16 42 15
35 18 48 40 181 18 104 13 354 -9 453 -112 507 -491 886 -998 998 -97 22 -369
27 -463 9z m370 -260 c339 -64 603 -264 751 -566 32 -66 69 -174 80 -232 2
-17 7 -34 10 -38 3 -5 7 -62 9 -127 5 -186 -31 -350 -112 -507 -149 -289 -422
-486 -747 -540 -73 -12 -305 -13 -324 -1 -5 3 -22 8 -39 10 -64 12 -171 50
-248 88 -252 126 -437 346 -518 618 -32 105 -41 168 -41 290 0 123 9 185 40
290 117 389 435 658 849 719 53 8 240 5 290 -4z"/>
<path d="M992 2080 c-253 -128 -175 -506 107 -524 150 -9 277 100 289 249 13
169 -94 292 -262 302 -64 4 -77 2 -134 -27z"/>
<path d="M1620 1551 c-19 -4 -46 -13 -60 -20 -131 -69 -186 -197 -145 -337 23
-79 99 -156 178 -179 186 -54 361 74 360 264 -1 148 -102 260 -248 275 -27 2
-66 1 -85 -3z"/>
<path d="M1045 992 c-209 -60 -277 -298 -131 -460 77 -85 216 -109 323 -56 65
31 124 101 143 168 16 58 9 150 -15 201 -57 117 -199 183 -320 147z"/>
</g>
</svg>
